<?xml version="1.0" encoding="UTF-8"?>
<svg id="Layer_2" data-name="Layer 2" xmlns="http://www.w3.org/2000/svg" viewBox="0 0 142.02 142.02">
  <defs>
    <style>
      .cls-1 {
        fill: #f1d14b;
      }
    </style>
  </defs>
  <g id="Layer_1-2" data-name="Layer 1">
    <path class="cls-1" d="M71.02,0C31.86,0,0,31.86,0,71.02s31.86,71,71.02,71,71-31.83,71-71S110.19,0,71.02,0ZM100.23,25.17c9.04,5.81,16.26,14.16,20.63,24.06-5.95-2.77-13.03-4.9-20.63-6.42v-17.65ZM58.41,18.14c4.07-.97,8.27-1.55,12.61-1.55s8.55.58,12.61,1.55v22.46c-4.2-.33-8.44-.5-12.61-.5s-8.41.17-12.61.5v-22.46ZM41.82,116.85c-9.04-5.78-16.29-14.13-20.63-24.06,5.95,2.79,13.03,4.92,20.63,6.42v17.65ZM41.82,82.61c-17.23-3.54-25.22-9.57-25.22-11.59s7.99-8.05,25.22-11.59v23.18ZM41.82,42.81c-7.61,1.52-14.69,3.65-20.63,6.42,4.34-9.9,11.59-18.25,20.63-24.06v17.65ZM49.45,71.02c0-11.26,8.61-20.48,19.61-21.47-.24.39-.42.83-.42,1.32v10.48l-2.03-.87c-.13-.05-.37-.12-.79-.12-1.18,0-2.18.76-2.49,1.88l-.43,1.54-1.5-.56c-.38-.14-.66-.2-.96-.2-1.38,0-2.62,1.15-2.91,2.69v7.91c0,4.42,2.31,8.69,6.02,11.13l.66.43v.79l-.07,5.5c-8.54-2.88-14.69-10.94-14.69-20.43ZM83.63,123.9c-4.07.97-8.27,1.52-12.61,1.52s-8.55-.55-12.61-1.52v-22.46c4.2.33,8.44.47,12.61.47s8.41-.14,12.61-.47v22.46ZM77.83,91.48v-6.31l.66-.43c3.71-2.44,6.02-6.7,6.02-11.13v-2.66c0-2.5-1.73-4.6-4.22-5.13l-1.16-.24v-12.05c0-1.41-1.15-2.56-2.56-2.56-.3,0-.59.06-.97.2l-1.49.56-.42-1.54c-.06-.22-.17-.41-.28-.61,10.8,1.19,19.19,10.32,19.19,21.43,0,9.52-6.19,17.6-14.76,20.46ZM100.23,116.85v-17.65c7.61-1.49,14.69-3.62,20.63-6.42-4.37,9.93-11.59,18.28-20.63,24.06ZM100.23,82.61v-23.18c17.2,3.54,25.2,9.57,25.2,11.59s-7.99,8.05-25.2,11.59Z"/>
  </g>
</svg>